<svg width="512" height="512" viewBox="0 0 512 512" fill="none" xmlns="http://www.w3.org/2000/svg">
<rect width="512" height="512" fill="white"/>
<path d="M235.224 297.479V338.961C235.224 344.837 237.212 349.763 241.187 353.739C245.162 357.714 250.088 359.702 255.965 359.702C261.841 359.702 266.767 357.714 270.742 353.739C274.718 349.763 276.705 344.837 276.705 338.961V297.479H318.187C324.063 297.479 328.989 295.492 332.965 291.516C336.94 287.541 338.928 282.615 338.928 276.739C338.928 270.862 336.94 265.936 332.965 261.961C328.989 257.986 324.063 255.998 318.187 255.998H276.705V214.516C276.705 208.64 274.718 203.714 270.742 199.739C266.767 195.763 261.841 193.776 255.965 193.776C250.088 193.776 245.162 195.763 241.187 199.739C237.212 203.714 235.224 208.64 235.224 214.516V255.998H193.742C187.866 255.998 182.94 257.986 178.965 261.961C174.989 265.936 173.002 270.862 173.002 276.739C173.002 282.615 174.989 287.541 178.965 291.516C182.94 295.492 187.866 297.479 193.742 297.479H235.224ZM183.113 448.628C160.471 438.776 140.767 425.467 124.002 408.702C107.236 391.936 93.9277 372.232 84.0758 349.59C74.224 326.948 69.298 302.665 69.298 276.739C69.298 250.813 74.224 226.529 84.0758 203.887C93.9277 181.245 107.236 161.541 124.002 144.776C140.767 128.01 160.471 114.702 183.113 104.85C205.755 94.9979 230.039 90.072 255.965 90.072C281.891 90.072 306.175 94.9979 328.817 104.85C351.459 114.702 371.162 128.01 387.928 144.776C404.693 161.541 418.002 181.245 427.854 203.887C437.705 226.529 442.631 250.813 442.631 276.739C442.631 302.665 437.705 326.948 427.854 349.59C418.002 372.232 404.693 391.936 387.928 408.702C371.162 425.467 351.459 438.776 328.817 448.628C306.175 458.479 281.891 463.405 255.965 463.405C230.039 463.405 205.755 458.479 183.113 448.628ZM49.5943 158.516C45.7919 154.714 43.8906 149.874 43.8906 143.998C43.8906 138.121 45.7919 133.282 49.5943 129.479L108.705 70.3683C112.508 66.5658 117.347 64.6646 123.224 64.6646C129.1 64.6646 133.94 66.5658 137.742 70.3683C141.545 74.1707 143.446 79.0102 143.446 84.8868C143.446 90.7633 141.545 95.6028 137.742 99.4053L78.6314 158.516C74.8289 162.319 69.9894 164.22 64.1128 164.22C58.2363 164.22 53.3968 162.319 49.5943 158.516ZM462.335 158.516C458.533 162.319 453.693 164.22 447.817 164.22C441.94 164.22 437.1 162.319 433.298 158.516L374.187 99.4053C370.384 95.6028 368.483 90.7633 368.483 84.8868C368.483 79.0102 370.384 74.1707 374.187 70.3683C377.989 66.5658 382.829 64.6646 388.705 64.6646C394.582 64.6646 399.421 66.5658 403.224 70.3683L462.335 129.479C466.138 133.282 468.039 138.121 468.039 143.998C468.039 149.874 466.138 154.714 462.335 158.516ZM255.965 421.924C296.409 421.924 330.718 407.837 358.891 379.665C387.063 351.492 401.15 317.183 401.15 276.739C401.15 236.294 387.063 201.986 358.891 173.813C330.718 145.64 296.409 131.553 255.965 131.553C215.52 131.553 181.212 145.64 153.039 173.813C124.866 201.986 110.78 236.294 110.78 276.739C110.78 317.183 124.866 351.492 153.039 379.665C181.212 407.837 215.52 421.924 255.965 421.924Z" fill="#212121"/>
</svg>
